<svg width="22" height="17" viewBox="0 0 22 17" fill="none" xmlns="http://www.w3.org/2000/svg">
<path d="M18.2682 1.43454C16.9382 0.814538 15.4982 0.364538 13.9982 0.104538C13.985 0.104118 13.9719 0.106586 13.9598 0.111769C13.9477 0.116952 13.9369 0.124725 13.9282 0.134538C13.7482 0.464538 13.5382 0.894538 13.3982 1.22454C11.8072 0.984538 10.1892 0.984538 8.59816 1.22454C8.45816 0.884538 8.24816 0.464538 8.05816 0.134538C8.04816 0.114538 8.01816 0.104538 7.98816 0.104538C6.48816 0.364538 5.05816 0.814538 3.71816 1.43454C3.70816 1.43454 3.69816 1.44454 3.68816 1.45454C0.968164 5.52454 0.218164 9.48454 0.588164 13.4045C0.588164 13.4245 0.598164 13.4445 0.618164 13.4545C2.41816 14.7745 4.14816 15.5745 5.85816 16.1045C5.88816 16.1145 5.91816 16.1045 5.92816 16.0845C6.32816 15.5345 6.68816 14.9545 6.99816 14.3445C7.01816 14.3045 6.99816 14.2645 6.95816 14.2545C6.38816 14.0345 5.84816 13.7745 5.31816 13.4745C5.27816 13.4545 5.27816 13.3945 5.30816 13.3645C5.41816 13.2845 5.52816 13.1945 5.63816 13.1145C5.65816 13.0945 5.68816 13.0945 5.70816 13.1045C9.14816 14.6745 12.8582 14.6745 16.2582 13.1045C16.2782 13.0945 16.3082 13.0945 16.3282 13.1145C16.4382 13.2045 16.5482 13.2845 16.6582 13.3745C16.6982 13.4045 16.6982 13.4645 16.6482 13.4845C16.1282 13.7945 15.5782 14.0445 15.0082 14.2645C14.9682 14.2745 14.9582 14.3245 14.9682 14.3545C15.2882 14.9645 15.6482 15.5445 16.0382 16.0945C16.0682 16.1045 16.0982 16.1145 16.1282 16.1045C17.8482 15.5745 19.5782 14.7745 21.3782 13.4545C21.3982 13.4445 21.4082 13.4245 21.4082 13.4045C21.8482 8.87454 20.6782 4.94454 18.3082 1.45454C18.2982 1.44454 18.2882 1.43454 18.2682 1.43454ZM7.51816 11.0145C6.48816 11.0145 5.62816 10.0645 5.62816 8.89454C5.62816 7.72454 6.46816 6.77454 7.51816 6.77454C8.57817 6.77454 9.41816 7.73454 9.40816 8.89454C9.40816 10.0645 8.56816 11.0145 7.51816 11.0145ZM14.4882 11.0145C13.4582 11.0145 12.5982 10.0645 12.5982 8.89454C12.5982 7.72454 13.4382 6.77454 14.4882 6.77454C15.5482 6.77454 16.3882 7.73454 16.3782 8.89454C16.3782 10.0645 15.5482 11.0145 14.4882 11.0145Z" fill="white"/>
</svg>
