<svg width="18" height="19" viewBox="0 0 18 19" fill="none" xmlns="http://www.w3.org/2000/svg">
<path fill-rule="evenodd" clip-rule="evenodd" d="M13.5 0.104492H4.5C2.02522 0.104492 0 2.12882 0 4.60449V13.6045C0 16.0793 2.02522 18.1045 4.5 18.1045H13.5C15.9748 18.1045 18 16.0793 18 13.6045V4.60449C18 2.12882 15.9748 0.104492 13.5 0.104492ZM9 12.8543C6.92865 12.8543 5.24993 11.1749 5.24993 9.10449C5.24993 7.03314 6.92865 5.35442 9 5.35442C11.0704 5.35442 12.7501 7.03314 12.7501 9.10449C12.7501 11.1749 11.0704 12.8543 9 12.8543ZM12.7501 4.22942C12.7501 4.85064 13.2532 5.35442 13.8751 5.35442C14.497 5.35442 15.0001 4.85064 15.0001 4.22942C15.0001 3.60819 14.497 3.10442 13.8751 3.10442C13.2532 3.10442 12.7501 3.60819 12.7501 4.22942Z" fill="white"/>
</svg>
