<svg width="22" height="20" viewBox="0 0 22 20" fill="none" xmlns="http://www.w3.org/2000/svg">
<path d="M21.1602 8.5579C21.16 8.02069 21.0056 7.49483 20.7151 7.0429C20.4247 6.59097 20.0105 6.23201 19.5219 6.00875C19.0332 5.78548 18.4908 5.70731 17.959 5.78354C17.4272 5.85977 16.9285 6.08718 16.5223 6.43872C15.0549 5.65903 13.3019 5.18771 11.471 5.0782L11.9256 2.34753L13.478 2.58582C13.5568 3.07551 13.8061 3.52159 14.182 3.84522C14.5578 4.16885 15.036 4.34919 15.5319 4.35437C16.0279 4.35955 16.5097 4.18924 16.8922 3.87353C17.2747 3.55782 17.5333 3.11704 17.6223 2.6291C17.7113 2.14117 17.6249 1.63749 17.3784 1.20709C17.1319 0.776686 16.7412 0.447276 16.2754 0.27708C15.8095 0.106883 15.2985 0.106858 14.8326 0.277009C14.3667 0.44716 13.976 0.776531 13.7294 1.20691L11.4517 0.856486C11.2695 0.828389 11.0835 0.873233 10.9341 0.981298C10.7847 1.08936 10.684 1.25194 10.6536 1.43381L10.0518 5.06769C8.13845 5.15004 6.30048 5.62662 4.77264 6.43872C4.21468 5.96737 3.4948 5.7324 2.76621 5.78381C2.03762 5.83523 1.35787 6.16897 0.871631 6.714C0.385395 7.25903 0.131077 7.97231 0.162805 8.70202C0.194534 9.43173 0.509804 10.1202 1.04151 10.621C0.905246 11.0893 0.835934 11.5745 0.835639 12.0621C0.835639 13.9833 1.88691 15.7722 3.80635 17.0986C5.64344 18.3697 8.07274 19.0706 10.6475 19.0706C13.2222 19.0706 15.6515 18.3697 17.4886 17.0986C19.408 15.7722 20.4593 13.9833 20.4593 12.0621C20.459 11.5745 20.3897 11.0893 20.2534 10.621C20.5384 10.358 20.766 10.0391 20.9221 9.68406C21.0781 9.32906 21.1591 8.94567 21.1602 8.5579ZM15.5534 1.54945C15.692 1.54945 15.8275 1.59055 15.9428 1.66756C16.058 1.74457 16.1478 1.85403 16.2009 1.98209C16.2539 2.11015 16.2678 2.25107 16.2408 2.38702C16.2137 2.52297 16.147 2.64785 16.049 2.74586C15.951 2.84388 15.8261 2.91063 15.6901 2.93767C15.5542 2.96471 15.4133 2.95083 15.2852 2.89779C15.1571 2.84474 15.0477 2.75491 14.9707 2.63966C14.8937 2.52441 14.8525 2.38891 14.8525 2.25029C14.8525 2.06442 14.9264 1.88615 15.0578 1.75472C15.1893 1.62329 15.3675 1.54945 15.5534 1.54945ZM5.74156 10.6604C5.74156 10.3832 5.82376 10.1122 5.97778 9.8817C6.1318 9.65119 6.35072 9.47153 6.60684 9.36544C6.86297 9.25935 7.1448 9.2316 7.4167 9.28568C7.68861 9.33976 7.93836 9.47326 8.13439 9.66929C8.33042 9.86532 8.46392 10.1151 8.51801 10.387C8.57209 10.6589 8.54433 10.9407 8.43824 11.1968C8.33215 11.453 8.15249 11.6719 7.92199 11.8259C7.69148 11.9799 7.42048 12.0621 7.14325 12.0621C6.7715 12.0621 6.41497 11.9145 6.1521 11.6516C5.88924 11.3887 5.74156 11.0322 5.74156 10.6604ZM13.7794 15.4849C12.815 15.9974 11.7396 16.2654 10.6475 16.2654C9.55537 16.2654 8.47995 15.9974 7.51557 15.4849C7.43424 15.4417 7.36219 15.383 7.30356 15.312C7.24492 15.241 7.20084 15.1592 7.17383 15.0712C7.14682 14.9832 7.13742 14.8907 7.14615 14.799C7.15488 14.7074 7.18158 14.6183 7.22472 14.537C7.26786 14.4557 7.3266 14.3836 7.39759 14.325C7.46857 14.2663 7.55041 14.2223 7.63843 14.1952C7.72645 14.1682 7.81893 14.1588 7.91058 14.1676C8.00224 14.1763 8.09128 14.203 8.17262 14.2461C8.93464 14.6513 9.78446 14.8631 10.6475 14.8631C11.5105 14.8631 12.3603 14.6513 13.1223 14.2461C13.2037 14.203 13.2927 14.1763 13.3844 14.1676C13.476 14.1588 13.5685 14.1682 13.6565 14.1952C13.7445 14.2223 13.8264 14.2663 13.8974 14.325C13.9683 14.3836 14.0271 14.4557 14.0702 14.537C14.1134 14.6183 14.1401 14.7074 14.1488 14.799C14.1575 14.8907 14.1481 14.9832 14.1211 15.0712C14.0941 15.1592 14.05 15.241 13.9914 15.312C13.9328 15.383 13.8607 15.4417 13.7794 15.4849ZM14.1517 12.0621C13.8745 12.0621 13.6035 11.9799 13.373 11.8259C13.1425 11.6719 12.9628 11.453 12.8567 11.1968C12.7506 10.9407 12.7229 10.6589 12.7769 10.387C12.831 10.1151 12.9645 9.86532 13.1606 9.66929C13.3566 9.47326 13.6063 9.33976 13.8782 9.28568C14.1501 9.2316 14.432 9.25935 14.6881 9.36544C14.9442 9.47153 15.1631 9.65119 15.3172 9.8817C15.4712 10.1122 15.5534 10.3832 15.5534 10.6604C15.5534 11.0322 15.4057 11.3887 15.1428 11.6516C14.88 11.9145 14.5235 12.0621 14.1517 12.0621Z" fill="white"/>
</svg>
