<?xml version="1.0" encoding="utf-8"?>
<!-- Generator: Adobe Illustrator 27.5.0, SVG Export Plug-In . SVG Version: 6.00 Build 0)  -->
<svg version="1.1" id="Calque_1" xmlns="http://www.w3.org/2000/svg" xmlns:xlink="http://www.w3.org/1999/xlink" x="0px" y="0px"
	 viewBox="0 0 39 39" style="enable-background:new 0 0 39 39;" xml:space="preserve">
<style type="text/css">
	.st0{fill-rule:evenodd;clip-rule:evenodd;fill:#020203;}
	.st1{fill:#020203;}
</style>
<g>
	<g>
		<path class="st0" d="M15.5,21.4c0.9-0.2,2-0.2,2.5-1.1c-5.9-1.1-7.6,0.1-8.2,1.8c0.1,0,0.6,0,0.6,0c2.6,0.2,3,1.1,2.1,3.5
			c-0.4,1-0.8,1.9-1.1,2.9c-0.8,2.1,0,3.9,1.5,5.9c-0.5-2.4,0.4-4,1.7-5.5C16.6,26.7,17.2,24.2,15.5,21.4z"/>
		<path class="st1" d="M18.6,24.5c2.1-10.1-4-24.5-4-24.5c4.5,2.4,7.4,5.5,9,8.6c2.5,4.8,0.8,12.7,0.8,12.7c2.3-4.5,1-9.4,1.3-9
			s2.6,2.2,3.3,5c1.2,4.7-2.4,10.2-2.4,10.2c1.9-1.7,3.3-6.3,3.3-6.3s1.2,1.4,0.8,4.6c-0.5,4.7-5.5,7-5.5,7c0.9,0.2,3.9-1.7,3.9-1.7
			c-0.6,1.7-1.8,3.3-2.6,3.9c-1.5,1.1-4.7,1.3-4.7,1.3c1.3,0.4,2.6,0.4,2.6,0.4c-2.9,2.7-7,1-7,1c1,0.9,1.4,1.2,1.6,1.3
			c-1,0.4-3.2-0.2-4.6-1.8c-0.7-0.8-1.6-3.2-1-5c0.7-1.9,1.8-3.1,2.9-3.9C17,27.8,18.3,25.8,18.6,24.5z"/>
	</g>
</g>
</svg>
