<?xml version="1.0" encoding="utf-8"?>
<!-- Generator: Adobe Illustrator 27.5.0, SVG Export Plug-In . SVG Version: 6.00 Build 0)  -->
<svg version="1.1" id="Calque_1" xmlns="http://www.w3.org/2000/svg" xmlns:xlink="http://www.w3.org/1999/xlink" x="0px" y="0px"
	 viewBox="0 0 1706.7 1073.3" style="enable-background:new 0 0 1706.7 1073.3;" xml:space="preserve">
<style type="text/css">
	.st0{fill:#6FCB5D;}
</style>
<path class="st0" d="M1564,2.1c-33.6,4.5-80.9,16.1-112,27.2c-50.9,18.3-129.9,55.7-174.7,83.1c-65.7,40-129.1,89.2-208.7,161.7
	C1009.7,327.9,969.7,375.6,938,430c-4.3,7.3-9.2,15.6-10.9,18.3c-6.7,10.8-13.9,3.7-14.8-14.7c-0.5-8.7-0.3-10.3,2.9-14.9
	c2.4-3.6,3.5-7.1,3.5-10.9c0-4.9-0.8-6.3-6.5-11.9c-3.6-3.5-8.4-6.7-10.7-7.2s-4.1-1.5-4.1-2.3c0-2.5,14.7-26.1,24.5-39.5
	c10.8-14.4,18.8-23.9,48.7-56.9c21.9-24.3,38.3-44.3,49.1-60.4c4.9-7.2,12.9-16.3,23.9-26.4c13.9-13.1,24.5-25.6,24.5-28.9
	c0-2-7.3-0.8-11.5,1.9c-2.5,1.5-9.2,8.8-14.9,16.3c-5.7,7.5-11.7,15.1-13.3,16.9c-1.5,1.9-9.6,12-17.7,22.7
	c-19.6,25.5-38.8,48.3-80.8,96l-34.5,39.3l-12.1,1.1c-11.1,1.1-12.8,0.9-21.5-2.1c-8.5-3.2-10.4-4.5-22.4-17.2
	c-7.3-7.6-32.1-32.9-55.2-56.4c-47.7-48.4-63.2-65.1-90.1-97.5c-17.6-21.1-24.3-27.2-29.7-27.2c-5.2,0,10.1,20.9,29.1,39.5
	c9.7,9.5,21.3,21.7,25.9,27.2c16,19.6,27.3,31.5,57.6,60.3c41.7,39.7,66.5,66.9,76.9,84.8l2.4,4l-5.1,2.5
	c-6,3.1-10.9,11.9-10.9,19.5c0,2.8,1.3,8.1,2.8,11.7c2.4,5.5,2.8,8.3,2.1,15.1c-0.9,9.9-4.3,17.7-8.1,18.9
	c-3.2,1.1-6.5-2.4-25.6-26.9C735.7,328,624.9,235.9,486.8,154.8C418.9,114.9,311.1,72,229.7,52.5c-40.1-9.6-63.3-12.8-97.1-13.5
	c-45.3-1-69,3.1-97.5,17l-13.6,6.7l-6.1,10.4c-7.9,13.6-13.9,29-15,38.9c-0.7,7.2-0.4,8.9,3.1,15.7c3.6,7.2,3.9,8.8,4.7,29.6
	c0.7,20,1.1,22.7,4.3,29.3c1.9,4,5.3,15.1,7.6,24.7c2.3,9.5,5.6,19.9,7.5,22.9c1.9,3.2,8.1,9.7,14,14.7
	C54,259.3,57.7,265,60.7,277.7c1.2,5.1,4.1,13.5,6.5,18.7c4.7,10.1,20,33.5,26.3,40.3s7.1,9.7,8.1,30.9l1.1,20.1l7.3,17.2
	c10.3,24.7,15.1,39.2,17.3,53.7c3.6,22.3,12,46.8,22.4,65.3c10,17.6,27.2,40.8,37.2,50.1c6.9,6.4,21.6,10.4,46.3,12.5
	c18.8,1.6,40.8,0.4,82.1-4.7c15.1-1.9,32.9-3.7,39.7-4.1l12.4-0.9l-12,8.4c-28.8,20.1-59.2,45.3-66.4,54.9
	c-1.9,2.4-12,21.5-22.5,42.4c-23.6,46.8-30.4,66.4-30.4,88.3c0,6.8,0.7,9.1,5.3,16.7c12.9,21.5,21.3,56.3,21.3,88
	c0,7.1,0.3,7.7,5.9,12.9c27.2,25.6,31.7,31.6,47.7,62.7l9.6,18.8l15.6,7.7c8.5,4.1,26,14.5,38.7,22.9c20.1,13.3,23.6,16,25.9,20.9
	c3.7,7.7,14,17.7,23.2,22.3c10.7,5.5,23.1,8.9,46.1,12.8c27.1,4.7,35.5,6.8,47.6,12.3l10.3,4.8l15.1-0.8c24.1-1.2,44.9-3.5,48.1-5.1
	c1.7-0.9,10.3-1.7,21.6-1.9c17.5-0.1,19.5-0.4,30.3-4.4c6.3-2.4,21.9-9.3,34.7-15.6c12.7-6.3,28.1-13.1,34.3-14.9l11.2-3.5l8.3-12.8
	c29.3-44.8,42.9-78.5,81.9-201.9c13.7-43.1,24.7-73.7,27.9-77.3c1.2-1.5,3.5-2.3,5.5-2c2.9,0.4,3.7,1.5,5.2,7.1
	c4.3,16.9,4.9,36.4,2.4,81.5c-2.5,44.7-2.3,58.8,1.5,78.5c3.3,18.4,14.9,43.6,20.7,45.5c6.5,2,10.9-3.3,18.1-21.7
	c13.5-34.5,14.9-63.1,7.1-136.5c-5.3-50.1-6.3-66.5-3.7-66.5c1.1,0,2.5,0.8,3.3,1.7s8.4,21.9,16.7,46.4
	c41.7,122.3,76.8,210.1,93.9,235.3c3.1,4.4,8,10.3,11.1,13.1c5.5,4.9,17.5,11.5,21.2,11.5c1.1,0,6.7,3.1,12.5,6.8
	c27.1,17.3,47.9,21.9,110.3,23.9c22.4,0.7,42.8,1.6,45.5,2c3.5,0.4,7.6-0.5,15.5-3.9c21.6-9.2,54.8-18.7,84.7-24.1l12.9-2.4l5.1-7.5
	c14.7-21.2,42.5-43.5,77.7-61.7c6.9-3.6,13.5-7.3,14.4-8.3c0.9-0.9,4.4-8.8,7.7-17.6c6.1-16.4,12-26.8,17.1-30.9
	c1.6-1.2,3.7-4.1,4.7-6.5c1.9-4.5,8.9-11.7,22.7-23.2c12.8-10.7,14.8-15.5,14.8-34.5c0-24,3.6-36.3,20.8-70.9l9.7-19.6l-2.7-10.4
	c-6.4-24.1-16.5-47.2-40.4-91.1c-13.2-24.3-16.7-29.7-23.2-35.7c-9.7-9.2-27.9-21.2-59.1-39.5c-22.7-13.2-35.6-21.7-30.5-20.1
	c4.7,1.5,60,6,82,6.8c37.5,1.3,89.6-3.7,101.7-10c6.4-3.3,7.5-4.5,18.9-23.5c23.7-39.3,36-72.8,36-98.1c0-8.3,1.2-13.1,9.3-37.1
	c10.8-31.7,14.4-47.2,15.6-66.8c0.8-13.5,0.9-14.1,5.3-19.3c6.8-7.9,15.2-26.3,24.4-53.1c9.3-27.3,13.3-35.9,22.5-48.1
	c3.7-4.9,7.2-9.9,7.9-11.2c2.1-4.1,4.1-14,5.6-28.9c0.9-8.1,3.1-19.1,4.8-24.4c3.9-11.9,4-16.7,0.4-30.8
	c-2.9-11.9-2.7-20.3,0.8-24.9c2.9-3.9,2.5-17.7-0.8-26.4C1688.3,16.3,1630.4-6.8,1564,2.1L1564,2.1z"/>
</svg>
