<svg version="1.1" id="Calque_1" xmlns="http://www.w3.org/2000/svg" x="0" y="0" viewBox="0 0 36 36" xml:space="preserve"><style>.st2{fill:none;stroke:#231f20;stroke-miterlimit:10}.st5{fill:#231f20}</style><path d="M33.3 36H2.7C1.2 36 0 34.8 0 33.3V2.7C0 1.2 1.2 0 2.7 0h30.5C34.8 0 36 1.2 36 2.7v30.5c0 1.6-1.2 2.8-2.7 2.8z" fill="#fff"/><path d="M14.3 21.5l-.5-.6s-.6.8-1.1.5-.3-1-.3-1-1.9.6-2.4 0 .4-1.3.4-1.3-6.1-1.4-3-9.4c0 0-1.6.2-1.6-.5s1.6-.4 1.6-.4-.6-.5-.4-1 1.1 0 1.4.4c0 0-.1-5.2 4.4-4.8 0 0 .8.2.4 1.9 0 0 4.7-3.8 6.4-1.1 0 0 .4.4-1 1.3 0 0 8.5.2 5.9 5.7 0 0-2.6 3-7.1.8 0 0 0 1.4-2 1.3v.4s1.9 2.5-.5 3.3c0 0-1.3-.9-2 .3 0 0-.3 1.1.7 1.6l.1 1.5.1.7" fill="#231f20" stroke="#231f20" stroke-width=".2" stroke-miterlimit="10"/><path class="st2" d="M0 31.1s6.1-3.8 14.3-4.3v-5.4s3 3.3 6.2 2.8c0 0 7.8-.7 3-12.3"/><path class="st2" d="M36 32.4s-7.5-4.8-15.4-5.4l-.1-2.7"/><path class="st2" d="M14.3 26.8s.1 1.9 2.1 2.4h2.1s1.5 0 2.1-2.2"/><path d="M19 18.9s-.1.3 0 .7c0 .2.1.4.2.5m3-.9s-1.9.9-3.2.4m1.6-1.3s.5.1 1.2-.8" stroke-width=".25" fill="none" stroke="#231f20" stroke-miterlimit="10"/><path d="M16.9 15s.8-.8 1.9-.4m2.4-.7s.6-.9 1.9-.5" stroke-width=".5" fill="none" stroke="#231f20" stroke-miterlimit="10"/><ellipse class="st5" cx="18.2" cy="16.2" rx=".4" ry=".6"/><ellipse class="st5" cx="22.2" cy="15.4" rx=".4" ry=".6"/></svg>