<svg width="16" height="19" viewBox="0 0 16 19" fill="none" xmlns="http://www.w3.org/2000/svg">
<path d="M12.6002 2.92449C11.9166 2.14411 11.5399 1.14192 11.5402 0.104492H8.45016V12.5045C8.42632 13.1755 8.14303 13.8111 7.65992 14.2774C7.17682 14.7437 6.5316 15.0044 5.86016 15.0045C4.44016 15.0045 3.26016 13.8445 3.26016 12.4045C3.26016 10.6845 4.92016 9.39449 6.63016 9.92449V6.76449C3.18016 6.30449 0.160156 8.98449 0.160156 12.4045C0.160156 15.7345 2.92016 18.1045 5.85016 18.1045C8.99016 18.1045 11.5402 15.5545 11.5402 12.4045V6.11449C12.7932 7.01434 14.2975 7.49714 15.8402 7.49449V4.40449C15.8402 4.40449 13.9602 4.49449 12.6002 2.92449Z" fill="white"/>
</svg>
