<svg width="20" height="17" viewBox="0 0 20 17" fill="none" xmlns="http://www.w3.org/2000/svg">
<path d="M17.633 4.10105C17.646 4.27605 17.646 4.45005 17.646 4.62405C17.646 9.94905 13.593 16.085 6.186 16.085C3.904 16.085 1.784 15.424 0 14.276C0.324 14.313 0.636 14.326 0.973 14.326C2.856 14.326 4.589 13.69 5.974 12.605C4.203 12.568 2.719 11.408 2.207 9.81205C2.456 9.84905 2.706 9.87405 2.968 9.87405C3.329 9.87405 3.692 9.82405 4.029 9.73705C2.182 9.36305 0.799 7.74205 0.799 5.78405V5.73405C1.336 6.03305 1.959 6.22005 2.619 6.24505C1.534 5.52305 0.823 4.28805 0.823 2.89105C0.823 2.14305 1.022 1.45705 1.371 0.859047C3.354 3.30205 6.335 4.89905 9.677 5.07405C9.615 4.77405 9.577 4.46305 9.577 4.15105C9.577 1.93105 11.373 0.123047 13.605 0.123047C14.765 0.123047 15.812 0.609047 16.548 1.39505C17.458 1.22005 18.33 0.883047 19.104 0.422047C18.805 1.35705 18.168 2.14305 17.333 2.64205C18.144 2.55405 18.93 2.33005 19.652 2.01805C19.104 2.81605 18.419 3.52705 17.633 4.10105Z" fill="white"/>
</svg>
